<svg width="35" height="35" viewBox="0 0 35 35" fill="none" xmlns="http://www.w3.org/2000/svg">
<path fill-rule="evenodd" clip-rule="evenodd" d="M17.5 2.9165C20.981 2.9165 24.3194 4.29931 26.7808 6.76073C29.2422 9.22214 30.625 12.5605 30.625 16.0415C30.625 20.5244 28.1808 24.1936 25.6054 26.8259C24.3187 28.1268 22.9147 29.3062 21.4113 30.3492L20.79 30.7721L20.4983 30.9661L19.9485 31.3161L19.4585 31.615L18.8519 31.968C18.4401 32.203 17.9741 32.3266 17.5 32.3266C17.0259 32.3266 16.5599 32.203 16.1481 31.968L15.5415 31.615L14.7831 31.1484L14.5031 30.9661L13.9052 30.568C12.2833 29.4706 10.7726 28.2173 9.39458 26.8259C6.81917 24.1921 4.375 20.5244 4.375 16.0415C4.375 12.5605 5.75781 9.22214 8.21922 6.76073C10.6806 4.29931 14.019 2.9165 17.5 2.9165ZM17.5 5.83317C14.7926 5.83317 12.1961 6.90869 10.2816 8.82312C8.36718 10.7376 7.29167 13.3341 7.29167 16.0415C7.29167 19.4278 9.14667 22.3998 11.4785 24.7857C12.4812 25.8007 13.5649 26.7322 14.719 27.5711L15.3869 28.0465C15.6027 28.1972 15.8103 28.3372 16.0096 28.4665L16.5783 28.8311L17.0785 29.1359L17.5 29.3823L18.1635 28.99L18.6987 28.6546C18.9836 28.4738 19.2884 28.2711 19.6131 28.0465L20.281 27.5711C21.4351 26.7322 22.5188 25.8007 23.5215 24.7857C25.8533 22.4013 27.7083 19.4278 27.7083 16.0415C27.7083 13.3341 26.6328 10.7376 24.7184 8.82312C22.8039 6.90869 20.2074 5.83317 17.5 5.83317ZM17.5 10.2082C19.0471 10.2082 20.5308 10.8228 21.6248 11.9167C22.7188 13.0107 23.3333 14.4944 23.3333 16.0415C23.3333 17.5886 22.7188 19.0723 21.6248 20.1663C20.5308 21.2603 19.0471 21.8748 17.5 21.8748C15.9529 21.8748 14.4692 21.2603 13.3752 20.1663C12.2812 19.0723 11.6667 17.5886 11.6667 16.0415C11.6667 14.4944 12.2812 13.0107 13.3752 11.9167C14.4692 10.8228 15.9529 10.2082 17.5 10.2082ZM17.5 13.1248C16.7265 13.1248 15.9846 13.4321 15.4376 13.9791C14.8906 14.5261 14.5833 15.268 14.5833 16.0415C14.5833 16.8151 14.8906 17.5569 15.4376 18.1039C15.9846 18.6509 16.7265 18.9582 17.5 18.9582C18.2735 18.9582 19.0154 18.6509 19.5624 18.1039C20.1094 17.5569 20.4167 16.8151 20.4167 16.0415C20.4167 15.268 20.1094 14.5261 19.5624 13.9791C19.0154 13.4321 18.2735 13.1248 17.5 13.1248Z" fill="#E9E7E7"/>
</svg>
