<svg width="36" height="36" viewBox="0 0 36 36" fill="none" xmlns="http://www.w3.org/2000/svg">
<circle cx="17.9504" cy="17.9504" r="17.4504" transform="matrix(-0.821347 0.575113 0.575113 0.821347 22.42 -7.06698)" stroke="#787878"/>
<path d="M8.42288 18.8398C8.03131 18.4483 8.03131 17.8134 8.42288 17.4218L14.8039 11.0408C15.1955 10.6493 15.8303 10.6493 16.2219 11.0408C16.6135 11.4324 16.6135 12.0673 16.2219 12.4588L10.5499 18.1308L16.2219 23.8029C16.6135 24.1944 16.6135 24.8293 16.2219 25.2209C15.8303 25.6124 15.1955 25.6124 14.8039 25.2209L8.42288 18.8398ZM27.1304 18.1308L27.1304 19.1335L9.13189 19.1335L9.13189 18.1308L9.13188 17.1282L27.1304 17.1282L27.1304 18.1308Z" fill="#C4C4C4"/>
</svg>
