<svg width="150" height="150" viewBox="0 0 150 150" fill="none" xmlns="http://www.w3.org/2000/svg">
<path d="M115.86 111.188L77.1074 122.543C71.8072 124.094 66.1801 124.141 60.8549 122.678L27.7199 113.55C26.7611 113.285 25.9467 112.651 25.4559 111.786C24.965 110.921 24.8378 109.896 25.1024 108.938C25.3669 107.979 26.0015 107.164 26.8665 106.673C27.7316 106.183 28.7561 106.055 29.7149 106.32L62.8499 115.44C66.8309 116.536 71.0385 116.499 74.9999 115.335L113.752 103.98C115.04 103.601 116.135 102.745 116.813 101.587C117.491 100.428 117.702 99.0547 117.403 97.7462C117.104 96.4377 116.316 95.2926 115.202 94.5445C114.087 93.7963 112.729 93.5015 111.405 93.72L91.3799 97.02C91.2899 97.0425 91.2149 97.0125 91.1324 97.02C91.1249 97.2 91.1474 97.3725 91.1324 97.545C90.8445 100.668 89.4007 103.572 87.0838 105.686C84.7669 107.8 81.744 108.973 78.6074 108.975C78.4049 108.975 78.2024 108.975 78.0074 108.96L62.0174 108.45C60.1767 108.395 58.3409 108.229 56.5199 107.955L50.3624 107.033C49.3778 106.885 48.492 106.353 47.8998 105.553C47.3077 104.752 47.0577 103.75 47.2049 102.765C47.3521 101.78 47.8844 100.895 48.6847 100.302C49.485 99.7103 50.4878 99.4603 51.4724 99.6075L57.6299 100.537C59.1625 100.771 60.7078 100.911 62.2574 100.958L78.2924 101.468C79.6098 101.536 80.9028 101.094 81.9028 100.233C82.9029 99.3728 83.533 98.1603 83.6624 96.8475C83.7937 95.5306 83.404 94.2146 82.577 93.1815C81.7499 92.1483 80.5511 91.4801 79.2374 91.32L67.9499 89.895C64.867 89.5065 61.9679 88.2149 59.6174 86.1825C57.0257 83.9363 53.9572 82.3086 50.644 81.4224C47.3307 80.5363 43.8594 80.4149 40.4924 81.0675L29.4224 83.1675C28.454 83.3347 27.4587 83.115 26.6506 82.5558C25.8425 81.9966 25.2862 81.1425 25.1014 80.1773C24.9166 79.2121 25.1181 78.2129 25.6625 77.3947C26.2069 76.5766 27.0507 76.0048 28.0124 75.8025L39.0824 73.7025C43.5588 72.8365 48.1734 72.9989 52.5779 74.1773C56.9823 75.3557 61.0615 77.5194 64.5074 80.505C65.7434 81.5723 67.2672 82.2507 68.8874 82.455L80.1674 83.88C82.0633 84.1173 83.8796 84.7855 85.4774 85.8333C87.0751 86.8811 88.4117 88.2807 89.3849 89.925C89.6299 89.7955 89.8892 89.6948 90.1574 89.625L110.19 86.325C113.395 85.8051 116.678 86.5256 119.371 88.3399C122.064 90.1542 123.965 92.9262 124.687 96.092C125.41 99.2579 124.899 102.58 123.259 105.383C121.619 108.185 118.974 110.266 115.86 111.188ZM53.2124 43.0875C53.2145 39.89 54.1271 36.7593 55.8432 34.0614C57.5594 31.3636 60.0083 29.2102 62.9035 27.8531C65.7986 26.496 69.0204 25.9913 72.1918 26.398C75.3633 26.8048 78.3534 28.1062 80.8124 30.15C83.2714 28.1062 86.2615 26.8048 89.4329 26.398C92.6044 25.9913 95.8261 26.496 98.7213 27.8531C101.616 29.2102 104.065 31.3636 105.782 34.0614C107.498 36.7593 108.41 39.89 108.412 43.0875C107.982 50.6161 105.022 57.7788 100.013 63.4156C95.0037 69.0523 88.2383 72.8329 80.8124 74.145C73.3968 72.8132 66.6441 69.0278 61.6386 63.3967C56.6332 57.7656 53.6655 50.608 53.2124 43.0875ZM60.7124 43.1025C61.1707 48.6396 63.358 53.8926 66.965 58.1186C70.5719 62.3447 75.416 65.33 80.8124 66.6525C86.2099 65.3296 91.0548 62.3431 94.6619 58.1156C98.269 53.8881 100.456 48.6334 100.912 43.095C100.912 41.1076 100.277 39.1723 99.0999 37.571C97.9228 35.9697 96.2651 34.7861 94.3684 34.1926C92.4717 33.5992 90.4351 33.6269 88.5552 34.2717C86.6753 34.9165 85.0505 36.1448 83.9174 37.7775C83.5554 38.2589 83.0865 38.6495 82.5476 38.9185C82.0087 39.1875 81.4147 39.3275 80.8124 39.3275C80.2101 39.3275 79.6161 39.1875 79.0772 38.9185C78.5383 38.6495 78.0694 38.2589 77.7074 37.7775C76.3915 35.8751 74.4154 34.5298 72.163 34.0031C69.9107 33.4764 67.5429 33.8059 65.5199 34.9275C64.0641 35.7397 62.8512 36.9253 62.0062 38.3623C61.1611 39.7992 60.7145 41.4355 60.7124 43.1025Z" fill="#1C1E36"/>
</svg>
