<svg width="37" height="28" viewBox="0 0 37 28" fill="none" xmlns="http://www.w3.org/2000/svg">
<g opacity="0.75">
<path opacity="0.7" d="M10.2436 0.460753C10.486 0.279232 10.7617 0.14716 11.0552 0.0720767C11.3486 -0.00300676 11.654 -0.0196309 11.9538 0.023154C12.2537 0.0659389 12.5422 0.167295 12.8029 0.321435C13.0635 0.475574 13.2912 0.679479 13.473 0.921507C13.6547 1.16354 13.787 1.43895 13.8621 1.73202C13.9373 2.02509 13.954 2.33007 13.9111 2.62957C13.8683 2.92906 13.7668 3.2172 13.6125 3.47752C13.4581 3.73785 13.254 3.96526 13.0116 4.14678C9.40399 6.8491 7.33721 9.4777 6.15388 11.7722C7.77864 11.3545 9.49333 11.4527 11.0596 12.0532C12.6259 12.6537 13.966 13.7266 14.8936 15.1228C15.8212 16.519 16.2903 18.1691 16.2356 19.8438C16.1809 21.5185 15.6051 23.1346 14.5884 24.4675C13.5716 25.8003 12.1643 26.7837 10.5622 27.2809C8.96001 27.7781 7.24255 27.7645 5.64851 27.2419C4.05447 26.7193 2.66304 25.7137 1.66763 24.3649C0.672214 23.016 0.122266 21.391 0.0942246 19.7156C-0.201348 16.8864 0.200956 14.028 1.26602 11.3898C2.64311 7.92035 5.335 4.13757 10.2436 0.460753ZM31.0038 0.460753C31.2461 0.279232 31.5219 0.14716 31.8153 0.0720767C32.1087 -0.00300676 32.4141 -0.0196309 32.714 0.023154C33.0139 0.0659389 33.3024 0.167295 33.563 0.321435C33.8237 0.475574 34.0514 0.679479 34.2331 0.921507C34.4149 1.16354 34.5471 1.43895 34.6223 1.73202C34.6975 2.02509 34.7141 2.33007 34.6713 2.62957C34.6284 2.92906 34.5269 3.2172 34.3726 3.47752C34.2183 3.73785 34.0141 3.96526 33.7718 4.14678C30.1641 6.8491 28.0973 9.4777 26.914 11.7722C28.5388 11.3545 30.2535 11.4527 31.8198 12.0532C33.3861 12.6537 34.7262 13.7266 35.6538 15.1228C36.5814 16.519 37.0504 18.1691 36.9957 19.8438C36.941 21.5185 36.3653 23.1346 35.3485 24.4675C34.3317 25.8003 32.9245 26.7837 31.3223 27.2809C29.7201 27.7781 28.0027 27.7645 26.4087 27.2419C24.8146 26.7193 23.4232 25.7137 22.4278 24.3649C21.4324 23.016 20.8824 21.391 20.8544 19.7156C20.5588 16.8864 20.9611 14.028 22.0262 11.3898C23.4056 7.92035 26.0951 4.13757 31.0038 0.460753Z" fill="#000B8E"/>
</g>
</svg>
