<svg width="35" height="35" viewBox="0 0 35 35" fill="none" xmlns="http://www.w3.org/2000/svg">
<path d="M5.83329 29.1668C5.03121 29.1668 4.34482 28.8815 3.77413 28.3108C3.20343 27.7401 2.9176 27.0532 2.91663 26.2502V8.75016C2.91663 7.94808 3.20246 7.26169 3.77413 6.691C4.34579 6.1203 5.03218 5.83447 5.83329 5.8335H29.1666C29.9687 5.8335 30.6556 6.11933 31.2272 6.691C31.7989 7.26266 32.0843 7.94905 32.0833 8.75016V26.2502C32.0833 27.0522 31.7979 27.7391 31.2272 28.3108C30.6566 28.8825 29.9697 29.1678 29.1666 29.1668H5.83329ZM17.5 18.7033C17.6215 18.7033 17.7493 18.6848 17.8835 18.6479C18.0177 18.6109 18.145 18.5565 18.2656 18.4845L28.5833 12.0314C28.7777 11.9099 28.9236 11.7582 29.0208 11.5764C29.118 11.3946 29.1666 11.1938 29.1666 10.9741C29.1666 10.488 28.96 10.1234 28.5468 9.88037C28.1336 9.63732 27.7083 9.64947 27.2708 9.91683L17.5 16.0418L7.72913 9.91683C7.29163 9.64947 6.86628 9.64364 6.45308 9.89933C6.03989 10.155 5.83329 10.5133 5.83329 10.9741C5.83329 11.2172 5.8819 11.4301 5.97913 11.6129C6.07635 11.7956 6.22218 11.9352 6.41663 12.0314L16.7343 18.4845C16.8559 18.5575 16.9837 18.6124 17.1179 18.6493C17.252 18.6863 17.3794 18.7043 17.5 18.7033Z" fill="#E9E7E7"/>
</svg>
