<svg width="35" height="35" viewBox="0 0 35 35" fill="none" xmlns="http://www.w3.org/2000/svg">
<path d="M29.0938 30.625C26.0556 30.625 23.0538 29.9629 20.0885 28.6388C17.1233 27.3146 14.4253 25.4367 11.9948 23.0052C9.56424 20.5737 7.68687 17.8758 6.36271 14.9115C5.03854 11.9472 4.37597 8.94542 4.375 5.90625C4.375 5.46875 4.52083 5.10417 4.8125 4.8125C5.10417 4.52083 5.46875 4.375 5.90625 4.375H11.8125C12.1528 4.375 12.4566 4.49069 12.724 4.72208C12.9913 4.95347 13.1493 5.22667 13.1979 5.54167L14.1458 10.6458C14.1944 11.0347 14.1823 11.3628 14.1094 11.6302C14.0365 11.8976 13.9028 12.1285 13.7083 12.3229L10.1719 15.8958C10.658 16.7951 11.235 17.6638 11.9029 18.5019C12.5708 19.3399 13.3063 20.1483 14.1094 20.9271C14.8628 21.6806 15.6528 22.3796 16.4792 23.0242C17.3056 23.6688 18.1806 24.2579 19.1042 24.7917L22.5312 21.3646C22.75 21.1458 23.0358 20.982 23.3888 20.8731C23.7417 20.7642 24.0878 20.7336 24.4271 20.7812L29.4583 21.8021C29.7986 21.8993 30.0781 22.0758 30.2969 22.3315C30.5156 22.5872 30.625 22.8725 30.625 23.1875V29.0938C30.625 29.5313 30.4792 29.8958 30.1875 30.1875C29.8958 30.4792 29.5313 30.625 29.0938 30.625ZM8.78646 13.125L11.1927 10.7188L10.5729 7.29167H7.32813C7.44965 8.28819 7.61979 9.27257 7.83854 10.2448C8.05729 11.217 8.37326 12.1771 8.78646 13.125ZM21.8385 26.1771C22.7865 26.5903 23.7528 26.9184 24.7377 27.1615C25.7226 27.4045 26.7128 27.5625 27.7083 27.6354V24.4271L24.2812 23.7344L21.8385 26.1771Z" fill="#E9E7E7"/>
</svg>
