<svg width="40" height="40" viewBox="0 0 40 40" fill="none" xmlns="http://www.w3.org/2000/svg">
<path fill-rule="evenodd" clip-rule="evenodd" d="M26.209 36.6663V23.758H30.5423L31.1907 18.728H26.2073V15.5163C26.2073 14.0597 26.6123 13.0663 28.7023 13.0663H31.3657V8.56634C30.0759 8.42776 28.7795 8.36099 27.4823 8.36634C23.6423 8.36634 21.014 10.7113 21.014 15.0163V18.728H16.6673V23.758H21.0123V36.6663H5.17398C4.15732 36.6663 3.33398 35.843 3.33398 34.8263V5.17301C3.33398 4.15634 4.15732 3.33301 5.17398 3.33301H34.8273C35.844 3.33301 36.6673 4.15634 36.6673 5.17301V34.8263C36.6673 35.843 35.844 36.6663 34.8273 36.6663H26.209Z" fill="#FFF9F9"/>
</svg>
