<svg width="36" height="36" viewBox="0 0 36 36" fill="none" xmlns="http://www.w3.org/2000/svg">
<circle cx="18" cy="18" r="17.4985" transform="rotate(35 18 18)" fill="#F5F5F5" stroke="#1C1E36"/>
<path d="M27.839 18.8398C28.2306 18.4483 28.2306 17.8134 27.839 17.4218L21.458 11.0408C21.0665 10.6493 20.4316 10.6493 20.04 11.0408C19.6485 11.4324 19.6485 12.0673 20.04 12.4588L25.712 18.1308L20.04 23.8029C19.6485 24.1944 19.6485 24.8293 20.04 25.2209C20.4316 25.6124 21.0665 25.6124 21.458 25.2209L27.839 18.8398ZM9.13158 18.1308L9.13158 19.1335L27.13 19.1335L27.13 18.1308L27.13 17.1282L9.13158 17.1282L9.13158 18.1308Z" fill="#1C1E36"/>
</svg>
