<svg width="17" height="17" viewBox="0 0 17 17" fill="none" xmlns="http://www.w3.org/2000/svg">
<path d="M17 1.01753C17 0.455565 16.5444 -2.56144e-10 15.9825 -2.57571e-07L6.82468 5.57259e-07C6.26271 2.14173e-07 5.80715 0.455565 5.80715 1.01753C5.80715 1.5795 6.26271 2.03506 6.82468 2.03506L14.9649 2.03506L14.9649 10.1753C14.9649 10.7373 15.4205 11.1929 15.9825 11.1929C16.5444 11.1929 17 10.7373 17 10.1753L17 1.01753ZM0.719489 16.2805L1.43899 17L16.702 1.73704L15.9825 1.01753L15.263 0.298028L-1.47379e-05 15.561L0.719489 16.2805Z" fill="#1C1E36"/>
</svg>
