<svg width="150" height="150" viewBox="0 0 150 150" fill="none" xmlns="http://www.w3.org/2000/svg">
<g clip-path="url(#clip0_1_713)">
<path d="M75 155C119.183 155 155 119.183 155 75.0001C155 30.8174 119.183 -5 75 -5C30.8172 -5 -5 30.8174 -5 75.0001C-5 119.183 30.8172 155 75 155Z" fill="#EDEDED"/>
<path fill-rule="evenodd" clip-rule="evenodd" d="M67.9531 95.3782C67.0344 95.3782 67.0344 98.8781 67.9531 98.8781H82.6719C83.5907 98.8781 83.5907 95.3781 82.6563 95.3656C82.6563 95.3656 78.3125 93.1842 78.0687 90.7155C77.875 88.7905 79.9125 85.1094 79.9125 85.1094C76.2312 86.275 74.3938 86.275 70.7126 85.1094C70.7126 85.1094 72.7969 88.822 72.5375 90.7376C72.1625 93.5001 67.9531 95.3782 67.9531 95.3782Z" fill="#1C1E36"/>
<path fill-rule="evenodd" clip-rule="evenodd" d="M51.875 36.1343C51.875 63.5405 61.25 86.375 75.3125 86.375C89.375 86.375 98.75 63.5374 98.75 36.1343H51.875ZM67.8125 98.875H82.8125C82.8125 107.209 84.6875 107.209 89.375 111.375H61.25C65.9375 107.209 67.8125 107.209 67.8125 98.875Z" fill="#1C1E36"/>
<path d="M89.4625 111.375H61.25V117.625H89.4625V111.375Z" fill="#1C1E36"/>
<path d="M92.0344 117.625H58.5906C58.3334 117.625 58.125 117.833 58.125 118.09V123.409C58.125 123.666 58.3334 123.875 58.5906 123.875H92.0344C92.2916 123.875 92.5 123.666 92.5 123.409V118.09C92.5 117.833 92.2916 117.625 92.0344 117.625Z" fill="#1C1E36"/>
<path fill-rule="evenodd" clip-rule="evenodd" d="M52.1156 33.25H30C30 62.5469 50.9375 76.6281 63.9907 80.125M58.8187 72.9373C52.8125 69.4686 37.1875 56.6875 37.1875 39.5H52.1156M97.8844 33.25H120.625C120.625 62.5469 99.6875 76.6281 86.6343 80.125M91.8063 72.9373C97.8125 69.4686 113.438 56.6875 113.438 39.5H97.8844" fill="#1C1E36"/>
<path fill-rule="evenodd" clip-rule="evenodd" d="M51.875 27V36.1343H98.75V27H51.875Z" fill="#1C1E36"/>
</g>
<defs>
<clipPath id="clip0_1_713">
<rect width="150" height="150" fill="white"/>
</clipPath>
</defs>
</svg>
