<svg width="150" height="150" viewBox="0 0 150 150" fill="none" xmlns="http://www.w3.org/2000/svg">
<path d="M49.5 109.102C50.7891 109.102 51.8438 108.047 51.8438 106.758V98.1094C51.8438 96.8203 50.7891 95.7656 49.5 95.7656C48.2109 95.7656 47.1563 96.8203 47.1563 98.1094V106.758C47.1563 108.047 48.2109 109.102 49.5 109.102ZM49.5 111.773C48.0234 111.773 46.8516 112.969 46.8516 114.422C46.8516 115.875 48.0469 117.094 49.5 117.094C50.9531 117.094 52.1484 115.898 52.1484 114.422C52.1484 112.945 50.9531 111.773 49.5 111.773Z" fill="#1C1E36"/>
<path d="M38.5547 50.1797C36.7769 50.1797 35.0719 50.8859 33.8149 52.143C32.5578 53.4001 31.8516 55.105 31.8516 56.8828V74.6719C27.6328 75.75 24.4219 79.4063 24.4219 83.9766V110.883C24.4219 116.273 28.8047 120.656 34.1953 120.656H34.8281V133.102C34.8281 137.25 38.2031 140.625 42.3516 140.625H56.6953C60.0234 140.625 62.7422 138.422 63.75 135.445H115.852C121.242 135.445 125.625 131.062 125.625 125.672V98.7656C125.625 93.375 121.242 88.9922 115.852 88.9922H115.523V50.7891C117.982 49.172 120.002 46.9703 121.401 44.3811C122.799 41.7919 123.534 38.8961 123.539 35.9531C123.539 31.4297 121.828 27.1172 118.734 23.8359C117.047 22.0312 114.937 21.4688 113.109 22.2891C111.141 23.1797 110.086 25.4531 110.391 28.1953L110.859 32.8125C111 34.2188 110.367 35.2734 109.781 35.9062C107.766 38.1328 103.664 38.1328 101.672 35.9062C101.109 35.2734 100.453 34.2188 100.594 32.8125L101.062 28.1953C101.367 25.1953 99.0703 23.0156 97.6641 22.2187C97.3908 22.0584 97.087 21.9568 96.7722 21.9205C96.4575 21.8842 96.1386 21.9139 95.8359 22.0078C95.5078 22.1016 93.7734 22.6406 92.6953 23.8359C89.6016 27.1172 87.9141 31.4297 87.8906 35.9766C87.8906 41.9531 90.9375 47.5078 95.9062 50.7891V72.6328C94.4766 71.8594 92.9062 71.3203 91.1016 71.3203C86.5547 71.3203 83.7891 74.4375 81.8906 77.5313H75.8672L69.75 65.7656C67.8281 62.0859 64.9453 56.5313 58.875 56.5313C57.0703 56.5313 55.4766 57.0703 54.0703 57.8438V56.9062C54.0703 53.2031 51.0469 50.2031 47.3672 50.2031H45.3047V23.1328H45.4687C46.7578 23.1328 47.8125 22.0781 47.8125 20.7891C47.8125 19.5 46.7578 18.4453 45.4687 18.4453H45.3047V11.7188C45.3047 10.4297 44.25 9.375 42.9609 9.375C41.6719 9.375 40.6172 10.4297 40.6172 11.7188V18.4453H40.4531C39.1641 18.4453 38.1094 19.5 38.1094 20.7891C38.1094 22.0781 39.1641 23.1328 40.4531 23.1328H40.6172V50.1797H38.5547ZM56.6719 135.938H42.3281C40.7578 135.938 39.4922 134.672 39.4922 133.102V94.6406C39.4922 93.0469 40.7344 91.8047 42.3281 91.8047H56.6719C58.2656 91.8047 59.5078 93.0469 59.5078 94.6406V133.102C59.5078 134.672 58.2422 135.938 56.6719 135.938ZM92.5781 35.9531C92.5781 32.625 93.8437 29.4609 96.1172 27.0234L95.9062 32.3438C95.6484 34.7812 96.4688 37.1719 98.1562 39.0469C100.031 41.1328 102.844 42.375 105.703 42.375C108.562 42.375 111.352 41.1328 113.227 39.0469C114.938 37.1484 115.734 34.7812 115.477 32.3203C114.961 27.3047 114.914 27.3047 115.031 26.7891C116.977 28.4531 118.805 32.1328 118.805 35.9297C118.805 40.7109 116.18 45.0938 112.008 47.3906C111.258 47.8125 110.789 48.5859 110.789 49.4531V88.9922H108.023V54.3984C108.023 53.1094 106.969 52.0547 105.68 52.0547C104.391 52.0547 103.336 53.1094 103.336 54.3984V88.9922H100.57V49.4531C100.57 48.6094 100.102 47.8125 99.3516 47.3906C97.3004 46.2649 95.5882 44.6104 94.3929 42.599C93.1976 40.5877 92.5629 38.2928 92.5547 35.9531H92.5781ZM91.1016 75.9844C92.6484 75.9844 93.9141 76.4531 94.7578 77.3672C95.6484 78.3281 96.0469 79.7344 95.9297 81.6094V91.3359C95.9297 92.625 96.9844 93.6797 98.2734 93.6797H115.828C118.641 93.6797 120.914 95.9531 120.914 98.7656V125.672C120.914 128.484 118.641 130.758 115.828 130.758H64.1953V96.9844H75.5391C76.4062 96.9844 77.2031 96.4922 77.625 95.7188L84.3984 82.6875C86.6484 78.3516 88.3828 75.9844 91.1016 75.9844ZM55.2422 62.5781C56.0859 61.6875 57.3516 61.1953 58.8984 61.1953C61.5937 61.1953 63.3516 63.5625 65.6016 67.8984L72.375 80.9297C72.7734 81.7031 73.5703 82.1953 74.4609 82.1953H79.3828L74.1328 92.2969H63.7266C62.7188 89.3203 60 87.1172 56.6719 87.1172H42.3281C38.1797 87.1172 34.8047 90.4922 34.8047 94.6406V115.969H34.1719C31.3594 115.969 29.0859 113.695 29.0859 110.883V83.9766C29.0859 81.1172 31.3125 78.8906 34.1719 78.8906H51.7266C53.0156 78.8906 54.0703 77.8359 54.0703 76.5469V66.5625C53.9766 64.8984 54.3516 63.4922 55.2422 62.5547V62.5781ZM49.3828 56.8828V74.2031H36.5156V56.8828C36.5156 55.7812 37.4297 54.8672 38.5313 54.8672H47.3438C48.4688 54.8672 49.3594 55.7812 49.3594 56.8828H49.3828Z" fill="#1C1E36"/>
</svg>
