<svg width="40" height="40" viewBox="0 0 40 40" fill="none" xmlns="http://www.w3.org/2000/svg">
<path d="M15.0667 35.9002C16.6667 36.3835 18.2833 36.6668 20 36.6668C24.4203 36.6668 28.6595 34.9109 31.7851 31.7853C34.9107 28.6597 36.6667 24.4204 36.6667 20.0002C36.6667 17.8115 36.2356 15.6442 35.398 13.6221C34.5604 11.6 33.3328 9.76269 31.7851 8.21505C30.2375 6.66741 28.4002 5.43975 26.3781 4.60217C24.356 3.76459 22.1887 3.3335 20 3.3335C17.8113 3.3335 15.644 3.76459 13.622 4.60217C11.5999 5.43975 9.76254 6.66741 8.2149 8.21505C5.08929 11.3407 3.33334 15.5799 3.33334 20.0002C3.33334 27.0835 7.78334 33.1668 14.0667 35.5668C13.9167 34.2668 13.7667 32.1168 14.0667 30.6335L15.9833 22.4002C15.9833 22.4002 15.5 21.4335 15.5 19.9002C15.5 17.6002 16.9333 15.8835 18.5667 15.8835C20 15.8835 20.6667 16.9335 20.6667 18.2835C20.6667 19.7168 19.7167 21.7668 19.2333 23.7335C18.95 25.3668 20.1 26.8002 21.7667 26.8002C24.7333 26.8002 27.0333 23.6335 27.0333 19.1668C27.0333 15.1668 24.1667 12.4335 20.05 12.4335C15.35 12.4335 12.5833 15.9335 12.5833 19.6168C12.5833 21.0502 13.05 22.5002 13.8167 23.4502C13.9667 23.5502 13.9667 23.6835 13.9167 23.9335L13.4333 25.7502C13.4333 26.0335 13.25 26.1335 12.9667 25.9335C10.8333 25.0002 9.60001 21.9668 9.60001 19.5168C9.60001 14.2502 13.3333 9.46683 20.5333 9.46683C26.2667 9.46683 30.7333 13.5835 30.7333 19.0502C30.7333 24.7835 27.1833 29.3835 22.1 29.3835C20.4833 29.3835 18.9 28.5168 18.3333 27.5002L17.2167 31.4502C16.8333 32.8835 15.7833 34.8002 15.0667 35.9502V35.9002Z" fill="#FFF9F9"/>
</svg>
